# xmcd
#
# Track frame offsets: 
#        150
#        19645
#        40692
#        58167
#        79849
#        100399
#        144532
#        163918
#        180381
#
# Disc length: 2695 seconds
#
# Revision: 0
# Processed by: cddbd v1.5.2PL0 Copyright (c) Steve Scherf et al.
# Submitted via: ExactAudioCopy v1.3
#
DISCID=710a8509
DTITLE=Rudy Rotta - Now And Then And Forever
DYEAR=2019
DGENRE=Blues
TTITLE0=Hold On
TTITLE1=No One Cares
TTITLE2=Harlem Shuffle
TTITLE3=Lookin' Good
TTITLE4=Winds Of War
TTITLE5=Bad Bad Feelin'
TTITLE6=Cross Road Blues
TTITLE7=Papa Grooves Funk
TTITLE8=Money Money
EXTD=
EXTT0=
EXTT1=
EXTT2=
EXTT3=
EXTT4=
EXTT5=
EXTT6=
EXTT7=
EXTT8=
PLAYORDER=
